<?xml version="1.0" standalone="no"?>
<!DOCTYPE svg PUBLIC "-//W3C//DTD SVG 20010904//EN"
 "http://www.w3.org/TR/2001/REC-SVG-20010904/DTD/svg10.dtd">
<svg version="1.0" xmlns="http://www.w3.org/2000/svg"
 width="700.000000pt" height="700.000000pt" viewBox="0 0 700.000000 700.000000"
 preserveAspectRatio="xMidYMid meet">
<metadata>
Created by potrace 1.14, written by Peter Selinger 2001-2017
</metadata>
<g transform="translate(0.000000,700.000000) scale(0.100000,-0.100000)"
fill="#000000" stroke="none">
<path d="M3265 6976 c-85 -41 -138 -102 -160 -186 -28 -105 1 -207 78 -282 37
-36 104 -70 406 -207 198 -90 361 -167 361 -170 0 -3 -51 -24 -113 -45 -61
-21 -188 -67 -282 -101 -236 -87 -530 -193 -720 -260 -201 -70 -376 -137 -372
-141 2 -2 61 -6 132 -9 72 -3 175 -8 230 -10 159 -8 321 -15 440 -20 61 -2
166 -7 235 -11 139 -7 277 -13 329 -13 45 -1 32 -13 -44 -39 -104 -36 -144
-51 -385 -147 -823 -327 -1416 -646 -1651 -888 -136 -140 -222 -289 -236 -407
-3 -25 -10 -49 -16 -55 -6 -7 -8 -7 -5 0 5 9 8 61 24 410 3 61 7 146 9 190 2
44 7 154 10 245 4 91 9 173 11 183 2 12 -2 17 -11 15 -21 -5 -191 -165 -264
-249 -108 -123 -113 -130 -174 -227 -167 -266 -216 -507 -155 -772 67 -293
203 -490 435 -632 l82 -51 -4 -56 c-4 -51 -8 -142 -21 -451 -2 -58 -6 -152 -9
-210 -3 -58 -7 -159 -10 -225 -3 -66 -7 -158 -10 -205 -2 -47 -7 -151 -11
-232 l-6 -148 28 -1 c16 0 56 -2 89 -4 343 -18 599 -28 703 -29 l84 -1 52 115
c64 138 71 155 198 435 55 121 113 243 129 271 113 200 408 187 509 -22 30
-61 34 -150 10 -217 -10 -29 -38 -95 -62 -147 -25 -52 -58 -124 -74 -160 -16
-35 -54 -118 -85 -185 l-55 -120 -70 1 c-68 1 -312 11 -472 20 l-83 4 -23 -53
c-13 -28 -37 -81 -54 -117 -179 -388 -186 -407 -167 -506 13 -72 50 -139 101
-184 41 -35 62 -46 449 -220 72 -33 157 -71 350 -160 609 -280 609 -279 671
-284 140 -9 262 80 298 217 37 142 -37 278 -187 347 -34 15 -136 62 -227 103
-91 41 -196 90 -235 107 -38 18 -103 47 -143 65 -85 37 -88 33 73 81 245 72
820 272 960 334 11 5 97 41 190 81 94 39 174 75 179 80 6 5 -15 9 -50 10 -32
1 -75 2 -94 4 -19 1 -111 5 -205 9 -93 4 -197 9 -230 11 -33 2 -132 6 -220 10
-88 4 -191 8 -230 10 -38 2 -135 6 -215 10 -80 4 -146 8 -147 9 -2 1 25 12 60
24 211 72 663 251 922 364 841 369 1284 699 1374 1022 17 65 7 212 -20 280
-47 120 -167 205 -347 247 -66 16 -130 21 -262 24 -156 3 -212 0 -380 -20
-141 -16 -455 -82 -625 -130 -49 -14 -97 -27 -105 -30 -8 -2 -109 -32 -225
-68 -176 -55 -309 -92 -397 -113 -10 -2 -26 -6 -35 -8 -70 -18 -360 -75 -404
-80 -30 -3 -81 -10 -113 -16 -93 -15 -238 -24 -401 -24 -133 0 -300 10 -315
19 -3 1 -26 6 -51 9 -87 12 -225 52 -318 93 l-33 15 7 171 c4 95 8 197 10 227
2 30 6 129 10 220 9 214 11 239 19 247 4 4 5 -4 3 -17 -7 -38 20 -129 54 -181
16 -26 50 -63 75 -82 51 -40 172 -94 231 -103 21 -3 41 -8 44 -10 40 -24 607
-24 680 0 8 3 32 7 54 10 34 4 74 12 205 41 8 2 42 10 75 19 33 9 85 24 115
32 30 8 161 47 290 86 279 84 319 95 385 113 150 40 324 85 350 89 17 3 41 8
55 11 66 13 140 25 190 30 30 4 61 8 68 11 55 17 552 26 682 12 154 -18 298
-51 405 -93 92 -36 89 -37 91 25 0 30 4 120 8 200 4 80 9 188 11 240 3 52 7
149 10 215 3 66 7 170 10 230 3 61 7 151 9 200 3 50 8 159 11 243 l7 152 -39
1 c-21 0 -65 2 -98 4 -59 3 -175 9 -460 21 -77 4 -175 7 -219 8 l-79 1 -59
-130 c-32 -71 -67 -148 -78 -170 -19 -41 -37 -80 -120 -265 -129 -285 -144
-310 -208 -352 -136 -90 -313 -56 -403 77 -37 55 -48 96 -45 173 2 56 11 85
53 177 28 61 60 133 73 160 13 28 39 86 60 130 20 44 49 109 65 145 39 89 39
89 93 85 44 -3 179 -10 454 -21 l117 -4 31 67 c18 38 52 113 77 168 25 55 61
134 80 175 51 109 62 151 59 227 -3 80 -35 152 -93 209 -34 33 -185 112 -313
164 -25 10 -88 38 -140 63 -108 50 -114 53 -495 227 -154 70 -311 142 -350
160 -109 50 -143 60 -209 60 -44 0 -75 -7 -111 -24z m885 -1371 c0 -2 -10 -25
-22 -50 l-23 -46 -107 3 c-59 2 -104 6 -100 10 7 6 230 86 245 87 4 1 7 -1 7
-4z m-1045 -4117 c2 -2 -50 -22 -115 -44 l-118 -41 9 26 c27 75 24 73 127 68
51 -3 95 -7 97 -9z"/>
<path d="M1569 5578 c-1 -24 -2 -65 -4 -93 -1 -27 -6 -135 -10 -240 -4 -104
-10 -194 -13 -200 -6 -10 21 9 46 33 7 6 44 33 80 59 37 26 69 50 72 53 11 11
160 106 255 163 109 64 415 217 436 217 7 0 10 3 7 6 -7 7 -64 11 -268 19 -85
3 -191 8 -235 10 -44 2 -144 7 -222 10 l-143 6 -1 -43z"/>
<path d="M5549 3823 c-1 -38 -3 -88 -4 -113 -1 -25 -6 -121 -10 -215 -4 -93
-8 -197 -11 -230 -2 -33 -6 -121 -9 -195 -3 -74 -7 -175 -10 -225 -2 -49 -7
-153 -10 -230 -4 -77 -8 -171 -10 -210 -2 -38 -7 -149 -10 -245 -8 -197 -15
-185 69 -110 289 257 489 565 531 815 13 73 12 249 -1 325 -35 205 -163 440
-308 566 -60 52 -183 132 -203 133 -9 1 -13 -19 -14 -66z"/>
<path d="M5379 1917 c-144 -108 -327 -226 -499 -319 -119 -65 -308 -158 -321
-158 -32 0 6 -14 44 -16 23 -1 123 -5 222 -9 99 -4 207 -9 240 -11 33 -1 131
-6 218 -9 l157 -6 1 28 c0 15 2 53 3 83 2 30 7 129 11 220 4 91 8 186 10 212
2 27 3 48 1 48 -2 0 -41 -28 -87 -63z"/>
</g>
</svg>
